<svg xmlns="http://www.w3.org/2000/svg" viewBox="0 0 64 64" width="64" height="64">
  <!-- Background circle -->
  <circle cx="32" cy="32" r="30" fill="#37474F" stroke="#263238" stroke-width="2"/>
  <!-- Gear shape -->
  <path d="M32 20 a12 12 0 1 1 0 24 a12 12 0 0 1 0-24 z" fill="none" stroke="white" stroke-width="3"/>
  <circle cx="32" cy="32" r="5" fill="white"/>
  <!-- Gear teeth -->
  <rect x="29.5" y="12" width="5" height="6" rx="1" fill="white"/>
  <rect x="29.5" y="46" width="5" height="6" rx="1" fill="white"/>
  <rect x="12" y="29.5" width="6" height="5" rx="1" fill="white"/>
  <rect x="46" y="29.5" width="6" height="5" rx="1" fill="white"/>
  <rect x="17.5" y="17.5" width="5" height="5" rx="1" fill="white" transform="rotate(45 20 20)"/>
  <rect x="41.5" y="17.5" width="5" height="5" rx="1" fill="white" transform="rotate(45 44 20)"/>
  <rect x="17.5" y="41.5" width="5" height="5" rx="1" fill="white" transform="rotate(45 20 44)"/>
  <rect x="41.5" y="41.5" width="5" height="5" rx="1" fill="white" transform="rotate(45 44 44)"/>
</svg>
